<svg id="cat" enable-background="new 0 0 300 300" height="512" viewBox="0 0 300 300" width="512" xmlns="http://www.w3.org/2000/svg"><g><circle cx="240" cy="53.265" r="4.53"/><path d="m235.824 99.441c.781.781 1.805 1.172 2.828 1.172s2.047-.391 2.828-1.172l4.52-4.52 4.52 4.52c.781.781 1.805 1.172 2.828 1.172s2.047-.391 2.828-1.172c1.562-1.562 1.562-4.094 0-5.656l-4.52-4.52 4.52-4.52c1.562-1.562 1.562-4.094 0-5.656s-4.094-1.562-5.656 0l-4.52 4.52-4.52-4.52c-1.562-1.562-4.094-1.562-5.656 0s-1.562 4.094 0 5.656l4.52 4.52-4.52 4.52c-1.562 1.562-1.562 4.093 0 5.656z"/><path d="m274 207.265h-12v-10.578c0-16.223-13.199-29.422-29.422-29.422h-18.578v-104.016c0-6.607-5.377-11.984-11.984-11.984h-168.032c-6.607 0-11.984 5.377-11.984 11.984v116.031c0 6.607 5.377 11.984 11.984 11.984h63.937l-3.2 16h-68.721c-2.209 0-4 1.791-4 4v16c0 2.209 1.791 4 4 4h216v4c0 8.822 7.178 16 16 16 2.209 0 4-1.791 4-4v-16h12c2.209 0 4-1.791 4-4v-16c0-2.208-1.791-3.999-4-3.999zm-76-40v-4h8v4zm-164.016-108h168.031c2.197 0 3.984 1.787 3.984 3.984v92.016h-8v-24c0-1.762-1.154-3.318-2.842-3.828-1.682-.518-3.508.143-4.486 1.609l-9.479 14.219h-22.387l-9.479-14.219c-.979-1.467-2.803-2.127-4.486-1.609-1.688.51-2.842 2.066-2.842 3.828v24h-111.998v-92.016c0-2.197 1.787-3.984 3.984-3.984zm103.295 148-3.2-16h17.704c.264 0 .495-.102.745-.151 3.844 2.617 8.481 4.151 13.471 4.151h4v.266c0 4.41 1.506 8.445 3.96 11.734zm36.721-20h-8c-8.822 0-16-7.178-16-16v-26.789l3.338 5.008c.742 1.113 1.99 1.781 3.328 1.781h26.668c1.338 0 2.586-.668 3.328-1.781l3.338-5.008v26.789c0 8.822-7.178 16-16 16zm-144-7.985v-16.016h112v8c0 4.374 1.195 8.465 3.247 12h-111.263c-2.197.001-3.984-1.786-3.984-3.984zm76.079 11.985h19.843l3.2 16h-26.242zm-76.079 32v-8h212v8zm224 18.926c-2.389-1.385-4-3.971-4-6.926v-32c0-2.209-1.791-4-4-4s-4 1.791-4 4v4h-52.266c-6.471 0-11.734-5.264-11.734-11.734v-.627c10.029-1.693 17.946-9.61 19.639-19.639h34.939c11.812 0 21.422 9.609 21.422 21.422zm16-18.926h-8v-8h8z"/><circle cx="116" cy="173.265" r="4.53"/><circle cx="180" cy="165.265" r="4.53"/><circle cx="160" cy="165.265" r="4.53"/></g></svg>