<svg height="52" viewBox="0 0 60 52" width="60" xmlns="http://www.w3.org/2000/svg"><g id="Page-1" fill="none" fill-rule="evenodd"><g id="012---Trail-Map" fill="rgb(0,0,0)" fill-rule="nonzero"><path id="Shape" d="m57 0h-18.456c-.4781079.00018964-.9522976.08622121-1.4.254l-14.986 5.619c-.2238685.08382657-.4609519.12684027-.7.127h-18.458c-1.65685425 0-3 1.34314575-3 3v40c0 1.6568542 1.34314575 3 3 3h18.456c.478149.0002679.9524198-.0857784 1.4-.254l14.981-5.619c.2239485-.0835359.4609791-.12654.7-.127h18.463c1.6568542 0 3-1.3431458 3-3v-40c0-1.65685425-1.3431458-3-3-3zm1 43c0 .5522847-.4477153 1-1 1h-18.456c-.4781079.0001896-.9522976.0862212-1.4.254l-14.986 5.619c-.2238685.0838266-.4609519.1268403-.7.127h-18.458c-.55228475 0-1-.4477153-1-1v-40c0-.55228475.44771525-1 1-1h18.456c.478149.00026788.9524198-.08577839 1.4-.254l14.985-5.619c.2239485-.0835359.4609791-.12654003.7-.127h18.459c.5522847 0 1 .44771525 1 1z"/><path id="Shape" d="m54 4c-15.914 0-15.187-.1-16.135.254-15.853 5.946-14.946 5.746-16.409 5.746h-15.456c-1.1045695 0-2 .8954305-2 2v34c0 1.1045695.8954305 2 2 2 15.849 0 15.176.106 16.135-.254 15.853-5.946 14.946-5.746 16.409-5.746h15.456c1.1045695 0 2-.8954305 2-2v-34c0-1.1045695-.8954305-2-2-2zm0 2v19.977c-1.7806207.0125722-3.540859-.3792757-5.148-1.146.7495941-1.1370141 1.1487766-2.4691293 1.148-3.831v-4c0-.5522847-.4477153-1-1-1s-1 .4477153-1 1c0 4.083.206 5.032-.744 6.589-.5420253-.6316485-1.0054111-1.3267273-1.38-2.07-1.3740688-2.5703056-3.9692267-4.2573848-6.876-4.47v-11.025c.265-.036-.972-.024 15-.024zm-35 24h2v8.539c-2.554-1.81-4.867-3.539-8-3.539-2.5360527-.0888413-5.01982719.7350622-7 2.322v-15.06c1.28777361-2.0661952 3.56572281-3.3046403 6-3.262 3.336 0 5.3 3.962 9 5.957v3.043h-2c-.5522847 0-1 .4477153-1 1s.4477153 1 1 1zm4-4.264c7.143 1.8 9.891-5.593 14-6.6v6.916c-2.2706869.249279-3.9922742 2.163684-4 4.448 0 1.3807119-1.1192881 2.5-2.5 2.5h-2c-.8284271 0-1.5-.6715729-1.5-1.5 0-1.9329966-1.5670034-3.5-3.5-3.5h-.5zm16-6.667c2.1747555.1986087 4.1021371 1.4820251 5.124 3.412.4797174.9305883 1.0765663 1.795952 1.776 2.575-.8433176.6118513-1.8581059.9421825-2.9.944h-4zm-18-7.069v3c0 .5522847.4477153 1 1 1s1-.4477153 1-1c0-3.7.012-2.878-.03-3.148.975-.188.3.011 14.03-5.137v10.365c-4.869.79-6.8 6.92-12 6.92-.6803912.0001113-1.3561369-.1120624-2-.332v-4.668c0-.5522847-.4477153-1-1-1s-1 .4477153-1 1v3.615c-2.925-2.066-5.065-5.615-9-5.615-2.2055786-.0360576-4.34520467.7523947-6 2.211v-7.211zm-15 34v-5.732c.457-.724 2.39-3.268 7-3.268 2.906 0 5.178 2.059 8 3.971v5.005c-.261.035 1 .024-15 .024zm17-3.779c1.2321474.6946711 2.5472647 1.2305965 3.914 1.595l-3.914 1.469zm7.842.122c-2.7971085-.0355736-5.5228418-.8878431-7.842-2.452v-9.891h.5c.8284271 0 1.5.6715729 1.5 1.5 0 1.9329966 1.5670034 3.5 3.5 3.5h2c2.4841391-.0027556 4.4972444-2.0158609 4.5-4.5.0002327-1.1877959.8362024-2.2114408 2-2.449v4.949c0 .5522847.4477153 1 1 1s1-.4477153 1-1v-5h4c1.6446287.0009761 3.236565-.5799708 4.494-1.64 1.9901237 1.0982173 4.2332982 1.6557355 6.506 1.617v6.44c-1.1178299-.9409892-2.5390929-1.4444717-4-1.417-5.328 0-5.592 6.283-11 6.933v-2.933c0-.5522847-.4477153-1-1-1s-1 .4477153-1 1v3.155c-.9.177-.841.195-6.158 2.189zm12.838-2.343c2.574-2.141 3.542-5 6.32-5 1.8019066-.0358469 3.4197822 1.0986883 4 2.805v2.195z"/><path id="Shape" d="m46.293 14.707c.3904999.3903819 1.0235001.3903819 1.414 0l1.293-1.293 1.293 1.293c.3923789.3789722 1.0160848.3735524 1.4018186-.0121814s.3911536-1.0094397.0121814-1.4018186l-1.293-1.293 1.293-1.293c.3789722-.3923789.3735524-1.01608478-.0121814-1.40181858-.3857338-.38573379-1.0094397-.39115363-1.4018186-.01218142l-1.293 1.293-1.293-1.293c-.3923789-.37897221-1.0160848-.37355237-1.4018186.01218142-.3857338.3857338-.3911536 1.00943968-.0121814 1.40181858l1.293 1.293-1.293 1.293c-.3903819.3904999-.3903819 1.0235001 0 1.414z"/><path id="Shape" d="m13.313 24.563c-.3479865-.3486863-.8203777-.5446352-1.313-.5446352s-.9650135.1959489-1.313.5446352l-2.163 2.256c-.52430303.5492118-.66993575 1.3584573-.37 2.056.27960369.6831518.94585091 1.1282397 1.684 1.125h4.324c.7381491.0032397 1.4043963-.4418482 1.684-1.125.3002276-.6976751.15414-1.5072604-.371-2.056zm-3.15 3.437 1.837-1.917 1.837 1.917z"/></g></g></svg>